<mxfile host="app.diagrams.net" modified="2024-03-27T08:59:44.520Z" agent="Mozilla/5.0 (Macintosh; Intel Mac OS X 10_15_7) AppleWebKit/537.36 (KHTML, like Gecko) Chrome/123.0.0.0 Safari/537.36" etag="12SvsBNkHPbMYIO6gdid" version="24.1.0" type="github">
  <diagram name="第 1 页" id="cT_dWv44AKkI8dZ2TpmG">
    <mxGraphModel dx="1788" dy="1819" grid="1" gridSize="10" guides="1" tooltips="1" connect="1" arrows="1" fold="1" page="1" pageScale="1" pageWidth="827" pageHeight="1169" math="0" shadow="0">
      <root>
        <mxCell id="0" />
        <mxCell id="1" parent="0" />
        <mxCell id="MJD19fluLZeddZfSbF4P-1" value="path2func" style="rounded=1;whiteSpace=wrap;html=1;fillColor=#dae8fc;strokeColor=#6c8ebf;" parent="1" vertex="1">
          <mxGeometry x="-40" y="-270" width="120" height="60" as="geometry" />
        </mxCell>
        <mxCell id="MJD19fluLZeddZfSbF4P-2" value="generate_path2func" style="rounded=1;whiteSpace=wrap;html=1;" parent="1" vertex="1">
          <mxGeometry x="140" y="-270" width="120" height="60" as="geometry" />
        </mxCell>
        <mxCell id="MJD19fluLZeddZfSbF4P-3" value="func2path" style="rounded=1;whiteSpace=wrap;html=1;fillColor=#dae8fc;strokeColor=#6c8ebf;" parent="1" vertex="1">
          <mxGeometry x="-40" y="-180" width="120" height="60" as="geometry" />
        </mxCell>
        <mxCell id="MJD19fluLZeddZfSbF4P-4" value="config_value" style="rounded=1;whiteSpace=wrap;html=1;fillColor=#dae8fc;strokeColor=#6c8ebf;" parent="1" vertex="1">
          <mxGeometry x="-40" y="-100" width="120" height="60" as="geometry" />
        </mxCell>
        <mxCell id="MJD19fluLZeddZfSbF4P-5" value="config_code" style="rounded=1;whiteSpace=wrap;html=1;fillColor=#dae8fc;strokeColor=#6c8ebf;" parent="1" vertex="1">
          <mxGeometry x="-40" y="-10" width="120" height="60" as="geometry" />
        </mxCell>
        <mxCell id="MJD19fluLZeddZfSbF4P-6" value="config_file" style="rounded=1;whiteSpace=wrap;html=1;fillColor=#dae8fc;strokeColor=#6c8ebf;" parent="1" vertex="1">
          <mxGeometry x="-40" y="80" width="120" height="60" as="geometry" />
        </mxCell>
        <mxCell id="MJD19fluLZeddZfSbF4P-8" value="generate_func2path" style="rounded=1;whiteSpace=wrap;html=1;" parent="1" vertex="1">
          <mxGeometry x="140" y="-180" width="120" height="60" as="geometry" />
        </mxCell>
        <mxCell id="MJD19fluLZeddZfSbF4P-10" value="generate_config" style="rounded=1;whiteSpace=wrap;html=1;" parent="1" vertex="1">
          <mxGeometry x="140" y="-100" width="120" height="60" as="geometry" />
        </mxCell>
        <mxCell id="MJD19fluLZeddZfSbF4P-11" value="config_code" style="rounded=1;whiteSpace=wrap;html=1;" parent="1" vertex="1">
          <mxGeometry x="140" y="-10" width="120" height="60" as="geometry" />
        </mxCell>
        <mxCell id="MJD19fluLZeddZfSbF4P-12" value="config_file" style="rounded=1;whiteSpace=wrap;html=1;" parent="1" vertex="1">
          <mxGeometry x="140" y="80" width="120" height="60" as="geometry" />
        </mxCell>
        <mxCell id="MJD19fluLZeddZfSbF4P-13" value="code_config" style="rounded=1;whiteSpace=wrap;html=1;fillColor=#dae8fc;strokeColor=#6c8ebf;" parent="1" vertex="1">
          <mxGeometry x="-40" y="170" width="120" height="60" as="geometry" />
        </mxCell>
        <mxCell id="MJD19fluLZeddZfSbF4P-14" value="funcs_config" style="rounded=1;whiteSpace=wrap;html=1;fillColor=#dae8fc;strokeColor=#6c8ebf;" parent="1" vertex="1">
          <mxGeometry x="-40" y="270" width="120" height="60" as="geometry" />
        </mxCell>
        <mxCell id="MJD19fluLZeddZfSbF4P-16" value="code_config" style="rounded=1;whiteSpace=wrap;html=1;" parent="1" vertex="1">
          <mxGeometry x="140" y="170" width="120" height="60" as="geometry" />
        </mxCell>
        <mxCell id="MJD19fluLZeddZfSbF4P-18" value="foundFuncsByConfig" style="rounded=1;whiteSpace=wrap;html=1;" parent="1" vertex="1">
          <mxGeometry x="140" y="270" width="120" height="60" as="geometry" />
        </mxCell>
        <mxCell id="MJD19fluLZeddZfSbF4P-25" style="edgeStyle=orthogonalEdgeStyle;rounded=0;orthogonalLoop=1;jettySize=auto;html=1;" parent="1" source="MJD19fluLZeddZfSbF4P-21" target="MJD19fluLZeddZfSbF4P-22" edge="1">
          <mxGeometry relative="1" as="geometry">
            <Array as="points">
              <mxPoint x="-160" y="590" />
            </Array>
          </mxGeometry>
        </mxCell>
        <mxCell id="MJD19fluLZeddZfSbF4P-21" value="generate_path2func" style="rounded=1;whiteSpace=wrap;html=1;" parent="1" vertex="1">
          <mxGeometry x="-220" y="430" width="120" height="60" as="geometry" />
        </mxCell>
        <mxCell id="MJD19fluLZeddZfSbF4P-22" value="find *.c file" style="rounded=1;whiteSpace=wrap;html=1;" parent="1" vertex="1">
          <mxGeometry x="-360" y="560" width="120" height="60" as="geometry" />
        </mxCell>
        <mxCell id="MJD19fluLZeddZfSbF4P-26" style="edgeStyle=orthogonalEdgeStyle;rounded=0;orthogonalLoop=1;jettySize=auto;html=1;" parent="1" source="MJD19fluLZeddZfSbF4P-23" target="MJD19fluLZeddZfSbF4P-24" edge="1">
          <mxGeometry relative="1" as="geometry" />
        </mxCell>
        <mxCell id="MJD19fluLZeddZfSbF4P-23" value="find *.h file" style="rounded=1;whiteSpace=wrap;html=1;" parent="1" vertex="1">
          <mxGeometry x="-360" y="620" width="120" height="60" as="geometry" />
        </mxCell>
        <mxCell id="MJD19fluLZeddZfSbF4P-28" style="edgeStyle=orthogonalEdgeStyle;rounded=0;orthogonalLoop=1;jettySize=auto;html=1;" parent="1" source="MJD19fluLZeddZfSbF4P-24" target="MJD19fluLZeddZfSbF4P-27" edge="1">
          <mxGeometry relative="1" as="geometry" />
        </mxCell>
        <mxCell id="MJD19fluLZeddZfSbF4P-24" value="analysis" style="rounded=1;whiteSpace=wrap;html=1;" parent="1" vertex="1">
          <mxGeometry x="-230" y="700" width="120" height="60" as="geometry" />
        </mxCell>
        <mxCell id="MJD19fluLZeddZfSbF4P-27" value="ctags-ubuntu --fields=+ne -o - --sort=no --c-kinds=f" style="rounded=1;whiteSpace=wrap;html=1;" parent="1" vertex="1">
          <mxGeometry x="-325" y="810" width="310" height="60" as="geometry" />
        </mxCell>
        <mxCell id="MJD19fluLZeddZfSbF4P-32" style="edgeStyle=orthogonalEdgeStyle;rounded=0;orthogonalLoop=1;jettySize=auto;html=1;" parent="1" source="MJD19fluLZeddZfSbF4P-29" target="MJD19fluLZeddZfSbF4P-30" edge="1">
          <mxGeometry relative="1" as="geometry" />
        </mxCell>
        <mxCell id="MJD19fluLZeddZfSbF4P-29" value="code_config" style="rounded=1;whiteSpace=wrap;html=1;" parent="1" vertex="1">
          <mxGeometry x="360" y="430" width="120" height="60" as="geometry" />
        </mxCell>
        <mxCell id="MJD19fluLZeddZfSbF4P-36" style="edgeStyle=orthogonalEdgeStyle;rounded=0;orthogonalLoop=1;jettySize=auto;html=1;" parent="1" source="MJD19fluLZeddZfSbF4P-30" target="MJD19fluLZeddZfSbF4P-33" edge="1">
          <mxGeometry relative="1" as="geometry" />
        </mxCell>
        <mxCell id="MJD19fluLZeddZfSbF4P-38" style="edgeStyle=orthogonalEdgeStyle;rounded=0;orthogonalLoop=1;jettySize=auto;html=1;" parent="1" source="MJD19fluLZeddZfSbF4P-30" target="MJD19fluLZeddZfSbF4P-34" edge="1">
          <mxGeometry relative="1" as="geometry">
            <Array as="points">
              <mxPoint x="335" y="680" />
              <mxPoint x="489" y="680" />
            </Array>
          </mxGeometry>
        </mxCell>
        <mxCell id="MJD19fluLZeddZfSbF4P-30" value="kvce.analysis_in_line" style="rounded=1;whiteSpace=wrap;html=1;" parent="1" vertex="1">
          <mxGeometry x="260" y="555" width="150" height="60" as="geometry" />
        </mxCell>
        <mxCell id="MJD19fluLZeddZfSbF4P-31" value="kvce" style="rounded=1;whiteSpace=wrap;html=1;fillColor=#f8cecc;strokeColor=#b85450;" parent="1" vertex="1">
          <mxGeometry x="210" y="555" width="50" height="60" as="geometry" />
        </mxCell>
        <mxCell id="MJD19fluLZeddZfSbF4P-37" style="edgeStyle=orthogonalEdgeStyle;rounded=0;orthogonalLoop=1;jettySize=auto;html=1;" parent="1" source="MJD19fluLZeddZfSbF4P-33" target="MJD19fluLZeddZfSbF4P-35" edge="1">
          <mxGeometry relative="1" as="geometry" />
        </mxCell>
        <mxCell id="MJD19fluLZeddZfSbF4P-33" value="search_source" style="rounded=1;whiteSpace=wrap;html=1;" parent="1" vertex="1">
          <mxGeometry x="170" y="750" width="150" height="60" as="geometry" />
        </mxCell>
        <mxCell id="MJD19fluLZeddZfSbF4P-34" value="clang.analysis" style="rounded=1;whiteSpace=wrap;html=1;" parent="1" vertex="1">
          <mxGeometry x="414" y="750" width="150" height="60" as="geometry" />
        </mxCell>
        <mxCell id="MJD19fluLZeddZfSbF4P-35" value="get_blocks" style="rounded=1;whiteSpace=wrap;html=1;" parent="1" vertex="1">
          <mxGeometry x="170" y="870" width="150" height="60" as="geometry" />
        </mxCell>
        <mxCell id="BIRX_gNmg9MkkUDwrSO7-1" value="class MacroArgs" style="rounded=1;whiteSpace=wrap;html=1;" vertex="1" parent="1">
          <mxGeometry x="1000" y="1060" width="150" height="60" as="geometry" />
        </mxCell>
        <mxCell id="BIRX_gNmg9MkkUDwrSO7-2" value="final" style="rounded=1;whiteSpace=wrap;html=1;" vertex="1" parent="1">
          <mxGeometry x="1150" y="1060" width="70" height="60" as="geometry" />
        </mxCell>
        <mxCell id="BIRX_gNmg9MkkUDwrSO7-3" value="class SourceLocation" style="rounded=1;whiteSpace=wrap;html=1;" vertex="1" parent="1">
          <mxGeometry x="1504" y="950" width="150" height="60" as="geometry" />
        </mxCell>
        <mxCell id="BIRX_gNmg9MkkUDwrSO7-4" value="class MacroInfo" style="rounded=1;whiteSpace=wrap;html=1;" vertex="1" parent="1">
          <mxGeometry x="1300" y="950" width="150" height="60" as="geometry" />
        </mxCell>
        <mxCell id="BIRX_gNmg9MkkUDwrSO7-6" value="clang/include/clang/Basic/TokenKinds.def" style="rounded=1;whiteSpace=wrap;html=1;" vertex="1" parent="1">
          <mxGeometry x="1020" y="660" width="310" height="60" as="geometry" />
        </mxCell>
        <mxCell id="BIRX_gNmg9MkkUDwrSO7-7" value="&lt;div&gt;// These have meaning after a &#39;#&#39; at the start of a line. These define enums in&lt;/div&gt;&lt;div&gt;// the tok::pp_* namespace.&amp;nbsp; Note that IdentifierInfo::getPPKeywordID must be&lt;/div&gt;&lt;div&gt;// manually updated if something is added here.&lt;/div&gt;&lt;div&gt;PPKEYWORD(not_keyword)&lt;/div&gt;&lt;div&gt;&lt;br&gt;&lt;/div&gt;&lt;div&gt;// C99 6.10.1 - Conditional Inclusion.&lt;/div&gt;&lt;div&gt;PPKEYWORD(if)&lt;/div&gt;&lt;div&gt;PPKEYWORD(ifdef)&lt;/div&gt;&lt;div&gt;PPKEYWORD(ifndef)&lt;/div&gt;&lt;div&gt;PPKEYWORD(elif)&lt;/div&gt;&lt;div&gt;PPKEYWORD(elifdef)&lt;/div&gt;&lt;div&gt;PPKEYWORD(elifndef)&lt;/div&gt;&lt;div&gt;PPKEYWORD(else)&lt;/div&gt;&lt;div&gt;PPKEYWORD(endif)&lt;/div&gt;&lt;div&gt;PPKEYWORD(defined)&lt;/div&gt;&lt;div&gt;&lt;br&gt;&lt;/div&gt;&lt;div&gt;// C99 6.10.2 - Source File Inclusion.&lt;/div&gt;&lt;div&gt;PPKEYWORD(include)&lt;/div&gt;&lt;div&gt;PPKEYWORD(__include_macros)&lt;/div&gt;&lt;div&gt;&lt;br&gt;&lt;/div&gt;&lt;div&gt;// C99 6.10.3 - Macro Replacement.&lt;/div&gt;&lt;div&gt;PPKEYWORD(define)&lt;/div&gt;&lt;div&gt;PPKEYWORD(undef)&lt;/div&gt;&lt;div&gt;&lt;br&gt;&lt;/div&gt;&lt;div&gt;// C99 6.10.4 - Line Control.&lt;/div&gt;&lt;div&gt;PPKEYWORD(line)&lt;/div&gt;&lt;div&gt;&lt;br&gt;&lt;/div&gt;&lt;div&gt;// C99 6.10.5 - Error Directive.&lt;/div&gt;&lt;div&gt;PPKEYWORD(error)&lt;/div&gt;&lt;div&gt;&lt;br&gt;&lt;/div&gt;&lt;div&gt;// C99 6.10.6 - Pragma Directive.&lt;/div&gt;&lt;div&gt;PPKEYWORD(pragma)&lt;/div&gt;&lt;div&gt;&lt;br&gt;&lt;/div&gt;&lt;div&gt;// GNU Extensions.&lt;/div&gt;&lt;div&gt;PPKEYWORD(import)&lt;/div&gt;&lt;div&gt;PPKEYWORD(include_next)&lt;/div&gt;&lt;div&gt;PPKEYWORD(warning)&lt;/div&gt;&lt;div&gt;PPKEYWORD(ident)&lt;/div&gt;&lt;div&gt;PPKEYWORD(sccs)&lt;/div&gt;&lt;div&gt;PPKEYWORD(assert)&lt;/div&gt;&lt;div&gt;PPKEYWORD(unassert)&lt;/div&gt;&lt;div&gt;&lt;br&gt;&lt;/div&gt;&lt;div&gt;// Clang extensions&lt;/div&gt;&lt;div&gt;PPKEYWORD(__public_macro)&lt;/div&gt;&lt;div&gt;PPKEYWORD(__private_macro)&lt;/div&gt;" style="rounded=1;whiteSpace=wrap;html=1;align=left;" vertex="1" parent="1">
          <mxGeometry x="1480" y="80" width="310" height="780" as="geometry" />
        </mxCell>
      </root>
    </mxGraphModel>
  </diagram>
</mxfile>
